<?xml version="1.0" encoding="UTF-8" standalone="no"?><svg xmlns="http://www.w3.org/2000/svg" xmlns:xlink="http://www.w3.org/1999/xlink" contentScriptType="application/ecmascript" contentStyleType="text/css" height="1039px" preserveAspectRatio="none" style="width:1695px;height:1039px;" version="1.1" viewBox="0 0 1695 1039" width="1695px" zoomAndPan="magnify"><defs><filter height="300%" id="frau5ditcnpio" width="300%" x="-1" y="-1"><feGaussianBlur result="blurOut" stdDeviation="2.0"/><feColorMatrix in="blurOut" result="blurOut2" type="matrix" values="0 0 0 0 0 0 0 0 0 0 0 0 0 0 0 0 0 0 .4 0"/><feOffset dx="4.0" dy="4.0" in="blurOut2" result="blurOut3"/><feBlend in="SourceGraphic" in2="blurOut3" mode="normal"/></filter></defs><g><!--MD5=[2f551ecf6e560d44a92d2bff06affd90]
cluster Character--><polygon fill="#FFFFFF" filter="url(#frau5ditcnpio)" points="30,32,114,32,121,54.2969,710,54.2969,710,370,30,370,30,32" style="stroke: #000000; stroke-width: 1.5;"/><line style="stroke: #000000; stroke-width: 1.5;" x1="30" x2="121" y1="54.2969" y2="54.2969"/><text fill="#000000" font-family="sans-serif" font-size="14" font-weight="bold" lengthAdjust="spacingAndGlyphs" textLength="78" x="34" y="46.9951">Character</text><!--MD5=[0dcf002e0c3d9b49271aabb8f53824c9]
cluster Stats--><polygon fill="#FFFFFF" filter="url(#frau5ditcnpio)" points="142,410,188,410,195,432.2969,757,432.2969,757,602,142,602,142,410" style="stroke: #000000; stroke-width: 1.5;"/><line style="stroke: #000000; stroke-width: 1.5;" x1="142" x2="195" y1="432.2969" y2="432.2969"/><text fill="#000000" font-family="sans-serif" font-size="14" font-weight="bold" lengthAdjust="spacingAndGlyphs" textLength="40" x="146" y="424.9951">Stats</text><!--MD5=[f0862bf7367bcc9d674716c64b321cab]
cluster Vehicle--><polygon fill="#FFFFFF" filter="url(#frau5ditcnpio)" points="384,642,448,642,455,664.2969,775,664.2969,775,834,384,834,384,642" style="stroke: #000000; stroke-width: 1.5;"/><line style="stroke: #000000; stroke-width: 1.5;" x1="384" x2="455" y1="664.2969" y2="664.2969"/><text fill="#000000" font-family="sans-serif" font-size="14" font-weight="bold" lengthAdjust="spacingAndGlyphs" textLength="58" x="388" y="656.9951">Vehicle</text><!--MD5=[c81e581a04f26b1bbcb55b171dacfc2f]
cluster GlobalMap--><polygon fill="#FFFFFF" filter="url(#frau5ditcnpio)" points="750,48,837,48,844,70.2969,1144,70.2969,1144,182,750,182,750,48" style="stroke: #000000; stroke-width: 1.5;"/><line style="stroke: #000000; stroke-width: 1.5;" x1="750" x2="844" y1="70.2969" y2="70.2969"/><text fill="#000000" font-family="sans-serif" font-size="14" font-weight="bold" lengthAdjust="spacingAndGlyphs" textLength="81" x="754" y="62.9951">GlobalMap</text><!--MD5=[b0b09f54806d069c91e7bb6357cbb309]
cluster GameManager--><polygon fill="#FFFFFF" filter="url(#frau5ditcnpio)" points="918,671,1037,671,1044,693.2969,1189,693.2969,1189,805,918,805,918,671" style="stroke: #000000; stroke-width: 1.5;"/><line style="stroke: #000000; stroke-width: 1.5;" x1="918" x2="1044" y1="693.2969" y2="693.2969"/><text fill="#000000" font-family="sans-serif" font-size="14" font-weight="bold" lengthAdjust="spacingAndGlyphs" textLength="113" x="922" y="685.9951">GameManager</text><!--MD5=[37cccaca00cb9a964917475a1d42877c]
cluster Loot--><polygon fill="#FFFFFF" filter="url(#frau5ditcnpio)" points="935,432.5,976,432.5,983,454.7969,1673,454.7969,1673,579.5,935,579.5,935,432.5" style="stroke: #000000; stroke-width: 1.5;"/><line style="stroke: #000000; stroke-width: 1.5;" x1="935" x2="983" y1="454.7969" y2="454.7969"/><text fill="#000000" font-family="sans-serif" font-size="14" font-weight="bold" lengthAdjust="spacingAndGlyphs" textLength="35" x="939" y="447.4951">Loot</text><!--MD5=[02d17ab721bedaad79d5f5e3685f9669]
cluster BuildingSystem--><polygon fill="#FFFFFF" filter="url(#frau5ditcnpio)" points="865,874,991,874,998,896.2969,1291,896.2969,1291,1027,865,1027,865,874" style="stroke: #000000; stroke-width: 1.5;"/><line style="stroke: #000000; stroke-width: 1.5;" x1="865" x2="998" y1="896.2969" y2="896.2969"/><text fill="#000000" font-family="sans-serif" font-size="14" font-weight="bold" lengthAdjust="spacingAndGlyphs" textLength="120" x="869" y="888.9951">BuildingSystem</text><!--MD5=[7fe264ee764694bd0fa965c8550c3150]
cluster Consumables--><polygon fill="#FFFFFF" filter="url(#frau5ditcnpio)" points="1331,880,1443,880,1450,902.2969,1538,902.2969,1538,1021,1331,1021,1331,880" style="stroke: #000000; stroke-width: 1.5;"/><line style="stroke: #000000; stroke-width: 1.5;" x1="1331" x2="1450" y1="902.2969" y2="902.2969"/><text fill="#000000" font-family="sans-serif" font-size="14" font-weight="bold" lengthAdjust="spacingAndGlyphs" textLength="106" x="1335" y="894.9951">Consumables</text><!--MD5=[9faade8d44f2c01a4bc5e8a9c8709ee2]
class CharacterController--><rect fill="#FEFECE" filter="url(#frau5ditcnpio)" height="99.2188" id="CharacterController" style="stroke: #A80036; stroke-width: 1.5;" width="212" x="227" y="240.5"/><ellipse cx="262.7" cy="256.5" fill="#90EE90" rx="11" ry="11" style="stroke: #A80036; stroke-width: 1.0;"/><path d="M259.6063,254.8906 L259.6063,259.7969 L260.2156,259.7969 C260.6688,259.7969 260.8094,259.8281 260.9969,259.9531 C261.2156,260.125 261.325,260.375 261.325,260.6563 C261.325,260.9375 261.1844,261.2188 260.9188,261.375 C260.8094,261.4531 260.5438,261.5 260.2156,261.5 L258.0125,261.5 C257.6063,261.5 257.3875,261.4531 257.2313,261.3281 C257.0125,261.1719 256.8719,260.9219 256.8719,260.6563 C256.8719,260.1094 257.2469,259.7969 257.9188,259.7969 L257.9188,253.2813 C257.3563,253.2344 257.0281,252.9375 257.0281,252.4219 C257.0281,252.1563 257.1844,251.8594 257.4344,251.6875 C257.5281,251.6406 257.8875,251.5781 258.0906,251.5781 C258.1219,251.5781 258.1375,251.5781 258.1531,251.5938 L260.0125,251.5938 L262.3563,256.6406 L264.6531,251.5938 L266.5125,251.5938 C266.9813,251.5938 267.1219,251.625 267.2938,251.7344 C267.4969,251.9063 267.6375,252.1719 267.6375,252.4375 C267.6375,252.9375 267.3094,253.2344 266.7469,253.2813 L266.7469,259.7969 C267.4188,259.7969 267.7938,260.1094 267.7938,260.6563 C267.7938,260.9375 267.6375,261.2188 267.3875,261.375 C267.2625,261.4531 267.0125,261.5 266.6688,261.5 L264.4656,261.5 C264.075,261.5 263.825,261.4531 263.7,261.3281 C263.4656,261.1719 263.3406,260.9063 263.3406,260.6563 C263.3406,260.3594 263.4969,260.0781 263.7469,259.9219 C263.9031,259.8125 264.0125,259.7969 264.4656,259.7969 L265.0594,259.7969 L265.0594,254.8906 L263.1688,259.1563 L261.6219,259.1563 Z "/><ellipse cx="286.3" cy="256" fill="#84BE84" rx="3" ry="3" style="stroke: #038048; stroke-width: 1.0;"/><text fill="#000000" font-family="sans-serif" font-size="12" lengthAdjust="spacingAndGlyphs" textLength="123" x="292.3" y="260.6543">CharacterController</text><line style="stroke: #A80036; stroke-width: 1.5;" x1="228" x2="438" y1="272.5" y2="272.5"/><ellipse cx="238" cy="283.5" fill="none" rx="3" ry="3" style="stroke: #038048; stroke-width: 1.0;"/><text fill="#000000" font-family="sans-serif" font-size="11" lengthAdjust="spacingAndGlyphs" textLength="127" x="247" y="286.7104">stats : CharacterStats</text><ellipse cx="238" cy="296.3047" fill="none" rx="3" ry="3" style="stroke: #038048; stroke-width: 1.0;"/><text fill="#000000" font-family="sans-serif" font-size="11" lengthAdjust="spacingAndGlyphs" textLength="186" x="247" y="299.5151">movement : CharacterMovement</text><ellipse cx="238" cy="309.1094" fill="none" rx="3" ry="3" style="stroke: #038048; stroke-width: 1.0;"/><text fill="#000000" font-family="sans-serif" font-size="11" lengthAdjust="spacingAndGlyphs" textLength="124" x="247" y="312.3198">input : CharacterInput</text><ellipse cx="238" cy="321.9141" fill="none" rx="3" ry="3" style="stroke: #038048; stroke-width: 1.0;"/><text fill="#000000" font-family="sans-serif" font-size="11" lengthAdjust="spacingAndGlyphs" textLength="154" x="247" y="325.1245">combat : CharacterCombat</text><line style="stroke: #A80036; stroke-width: 1.5;" x1="228" x2="438" y1="331.7188" y2="331.7188"/><!--MD5=[4067a88e96b5f48dbf9f6704ab489b93]
class CharacterMovement--><rect fill="#FEFECE" filter="url(#frau5ditcnpio)" height="112.0234" id="CharacterMovement" style="stroke: #A80036; stroke-width: 1.5;" width="204" x="474" y="234"/><ellipse cx="504.75" cy="250" fill="#90EE90" rx="11" ry="11" style="stroke: #A80036; stroke-width: 1.0;"/><path d="M501.6563,248.3906 L501.6563,253.2969 L502.2656,253.2969 C502.7188,253.2969 502.8594,253.3281 503.0469,253.4531 C503.2656,253.625 503.375,253.875 503.375,254.1563 C503.375,254.4375 503.2344,254.7188 502.9688,254.875 C502.8594,254.9531 502.5938,255 502.2656,255 L500.0625,255 C499.6563,255 499.4375,254.9531 499.2813,254.8281 C499.0625,254.6719 498.9219,254.4219 498.9219,254.1563 C498.9219,253.6094 499.2969,253.2969 499.9688,253.2969 L499.9688,246.7813 C499.4063,246.7344 499.0781,246.4375 499.0781,245.9219 C499.0781,245.6563 499.2344,245.3594 499.4844,245.1875 C499.5781,245.1406 499.9375,245.0781 500.1406,245.0781 C500.1719,245.0781 500.1875,245.0781 500.2031,245.0938 L502.0625,245.0938 L504.4063,250.1406 L506.7031,245.0938 L508.5625,245.0938 C509.0313,245.0938 509.1719,245.125 509.3438,245.2344 C509.5469,245.4063 509.6875,245.6719 509.6875,245.9375 C509.6875,246.4375 509.3594,246.7344 508.7969,246.7813 L508.7969,253.2969 C509.4688,253.2969 509.8438,253.6094 509.8438,254.1563 C509.8438,254.4375 509.6875,254.7188 509.4375,254.875 C509.3125,254.9531 509.0625,255 508.7188,255 L506.5156,255 C506.125,255 505.875,254.9531 505.75,254.8281 C505.5156,254.6719 505.3906,254.4063 505.3906,254.1563 C505.3906,253.8594 505.5469,253.5781 505.7969,253.4219 C505.9531,253.3125 506.0625,253.2969 506.5156,253.2969 L507.1094,253.2969 L507.1094,248.3906 L505.2188,252.6563 L503.6719,252.6563 Z "/><ellipse cx="527.25" cy="249.5" fill="#84BE84" rx="3" ry="3" style="stroke: #038048; stroke-width: 1.0;"/><text fill="#000000" font-family="sans-serif" font-size="12" lengthAdjust="spacingAndGlyphs" textLength="126" x="533.25" y="254.1543">CharacterMovement</text><line style="stroke: #A80036; stroke-width: 1.5;" x1="475" x2="677" y1="266" y2="266"/><ellipse cx="485" cy="277" fill="none" rx="3" ry="3" style="stroke: #038048; stroke-width: 1.0;"/><text fill="#000000" font-family="sans-serif" font-size="11" lengthAdjust="spacingAndGlyphs" textLength="96" x="494" y="280.2104">currSpeed : float</text><rect fill="none" height="6" style="stroke: #C82930; stroke-width: 1.0;" width="6" x="482" y="286.8047"/><text fill="#000000" font-family="sans-serif" font-size="11" lengthAdjust="spacingAndGlyphs" textLength="178" x="494" y="293.0151">controller : CharacterController</text><line style="stroke: #A80036; stroke-width: 1.5;" x1="475" x2="677" y1="299.6094" y2="299.6094"/><ellipse cx="485" cy="310.6094" fill="#84BE84" rx="3" ry="3" style="stroke: #038048; stroke-width: 1.0;"/><text fill="#000000" font-family="sans-serif" font-size="11" lengthAdjust="spacingAndGlyphs" textLength="133" x="494" y="313.8198">Accelerate(dir, amount)</text><ellipse cx="485" cy="323.4141" fill="#84BE84" rx="3" ry="3" style="stroke: #038048; stroke-width: 1.0;"/><text fill="#000000" font-family="sans-serif" font-size="11" lengthAdjust="spacingAndGlyphs" textLength="135" x="494" y="326.6245">Decelerate(dir, amount)</text><rect fill="#F24D5C" height="6" style="stroke: #C82930; stroke-width: 1.0;" width="6" x="482" y="333.2188"/><text fill="#000000" font-family="sans-serif" font-size="11" lengthAdjust="spacingAndGlyphs" textLength="37" x="494" y="339.4292">Move()</text><!--MD5=[edbbeba9ba2bac2c4e5896bf1c01e401]
class CharacterInput--><rect fill="#FEFECE" filter="url(#frau5ditcnpio)" height="86.4141" id="CharacterInput" style="stroke: #A80036; stroke-width: 1.5;" width="137" x="54.5" y="247"/><ellipse cx="69.5" cy="263" fill="#90EE90" rx="11" ry="11" style="stroke: #A80036; stroke-width: 1.0;"/><path d="M66.4063,261.3906 L66.4063,266.2969 L67.0156,266.2969 C67.4688,266.2969 67.6094,266.3281 67.7969,266.4531 C68.0156,266.625 68.125,266.875 68.125,267.1563 C68.125,267.4375 67.9844,267.7188 67.7188,267.875 C67.6094,267.9531 67.3438,268 67.0156,268 L64.8125,268 C64.4063,268 64.1875,267.9531 64.0313,267.8281 C63.8125,267.6719 63.6719,267.4219 63.6719,267.1563 C63.6719,266.6094 64.0469,266.2969 64.7188,266.2969 L64.7188,259.7813 C64.1563,259.7344 63.8281,259.4375 63.8281,258.9219 C63.8281,258.6563 63.9844,258.3594 64.2344,258.1875 C64.3281,258.1406 64.6875,258.0781 64.8906,258.0781 C64.9219,258.0781 64.9375,258.0781 64.9531,258.0938 L66.8125,258.0938 L69.1563,263.1406 L71.4531,258.0938 L73.3125,258.0938 C73.7813,258.0938 73.9219,258.125 74.0938,258.2344 C74.2969,258.4063 74.4375,258.6719 74.4375,258.9375 C74.4375,259.4375 74.1094,259.7344 73.5469,259.7813 L73.5469,266.2969 C74.2188,266.2969 74.5938,266.6094 74.5938,267.1563 C74.5938,267.4375 74.4375,267.7188 74.1875,267.875 C74.0625,267.9531 73.8125,268 73.4688,268 L71.2656,268 C70.875,268 70.625,267.9531 70.5,267.8281 C70.2656,267.6719 70.1406,267.4063 70.1406,267.1563 C70.1406,266.8594 70.2969,266.5781 70.5469,266.4219 C70.7031,266.3125 70.8125,266.2969 71.2656,266.2969 L71.8594,266.2969 L71.8594,261.3906 L69.9688,265.6563 L68.4219,265.6563 Z "/><ellipse cx="88.5" cy="262.5" fill="#84BE84" rx="3" ry="3" style="stroke: #038048; stroke-width: 1.0;"/><text fill="#000000" font-family="sans-serif" font-size="12" lengthAdjust="spacingAndGlyphs" textLength="94" x="94.5" y="267.1543">CharacterInput</text><line style="stroke: #A80036; stroke-width: 1.5;" x1="55.5" x2="190.5" y1="279" y2="279"/><ellipse cx="65.5" cy="290" fill="none" rx="3" ry="3" style="stroke: #038048; stroke-width: 1.0;"/><text fill="#000000" font-family="sans-serif" font-size="11" lengthAdjust="spacingAndGlyphs" textLength="81" x="74.5" y="293.2104">isPlayer : bool</text><line style="stroke: #A80036; stroke-width: 1.5;" x1="55.5" x2="190.5" y1="299.8047" y2="299.8047"/><rect fill="#F24D5C" height="6" style="stroke: #C82930; stroke-width: 1.0;" width="6" x="62.5" y="307.8047"/><text fill="#000000" font-family="sans-serif" font-size="11" lengthAdjust="spacingAndGlyphs" textLength="105" x="74.5" y="314.0151">CheckPlayerInput()</text><rect fill="#F24D5C" height="6" style="stroke: #C82930; stroke-width: 1.0;" width="6" x="62.5" y="320.6094"/><text fill="#000000" font-family="sans-serif" font-size="11" lengthAdjust="spacingAndGlyphs" textLength="80" x="74.5" y="326.8198">CheckAIInput()</text><!--MD5=[3b07f8ba2e60bb61b3c8a3d8b4885eee]
class CharacterCombat--><rect fill="#FEFECE" filter="url(#frau5ditcnpio)" height="99.2188" id="CharacterCombat" style="stroke: #A80036; stroke-width: 1.5;" width="267" x="199.5" y="75"/><ellipse cx="268.25" cy="91" fill="#90EE90" rx="11" ry="11" style="stroke: #A80036; stroke-width: 1.0;"/><path d="M265.1563,89.3906 L265.1563,94.2969 L265.7656,94.2969 C266.2188,94.2969 266.3594,94.3281 266.5469,94.4531 C266.7656,94.625 266.875,94.875 266.875,95.1563 C266.875,95.4375 266.7344,95.7188 266.4688,95.875 C266.3594,95.9531 266.0938,96 265.7656,96 L263.5625,96 C263.1563,96 262.9375,95.9531 262.7813,95.8281 C262.5625,95.6719 262.4219,95.4219 262.4219,95.1563 C262.4219,94.6094 262.7969,94.2969 263.4688,94.2969 L263.4688,87.7813 C262.9063,87.7344 262.5781,87.4375 262.5781,86.9219 C262.5781,86.6563 262.7344,86.3594 262.9844,86.1875 C263.0781,86.1406 263.4375,86.0781 263.6406,86.0781 C263.6719,86.0781 263.6875,86.0781 263.7031,86.0938 L265.5625,86.0938 L267.9063,91.1406 L270.2031,86.0938 L272.0625,86.0938 C272.5313,86.0938 272.6719,86.125 272.8438,86.2344 C273.0469,86.4063 273.1875,86.6719 273.1875,86.9375 C273.1875,87.4375 272.8594,87.7344 272.2969,87.7813 L272.2969,94.2969 C272.9688,94.2969 273.3438,94.6094 273.3438,95.1563 C273.3438,95.4375 273.1875,95.7188 272.9375,95.875 C272.8125,95.9531 272.5625,96 272.2188,96 L270.0156,96 C269.625,96 269.375,95.9531 269.25,95.8281 C269.0156,95.6719 268.8906,95.4063 268.8906,95.1563 C268.8906,94.8594 269.0469,94.5781 269.2969,94.4219 C269.4531,94.3125 269.5625,94.2969 270.0156,94.2969 L270.6094,94.2969 L270.6094,89.3906 L268.7188,93.6563 L267.1719,93.6563 Z "/><ellipse cx="293.75" cy="90.5" fill="#84BE84" rx="3" ry="3" style="stroke: #038048; stroke-width: 1.0;"/><text fill="#000000" font-family="sans-serif" font-size="12" lengthAdjust="spacingAndGlyphs" textLength="110" x="299.75" y="95.1543">CharacterCombat</text><line style="stroke: #A80036; stroke-width: 1.5;" x1="200.5" x2="465.5" y1="107" y2="107"/><ellipse cx="210.5" cy="118" fill="none" rx="3" ry="3" style="stroke: #038048; stroke-width: 1.0;"/><text fill="#000000" font-family="sans-serif" font-size="11" lengthAdjust="spacingAndGlyphs" textLength="164" x="219.5" y="121.2104">lootablePrefab : GameObject</text><ellipse cx="210.5" cy="130.8047" fill="none" rx="3" ry="3" style="stroke: #038048; stroke-width: 1.0;"/><text fill="#000000" font-family="sans-serif" font-size="11" lengthAdjust="spacingAndGlyphs" textLength="179" x="219.5" y="134.0151">currWeapon : CharacterWeapon</text><ellipse cx="210.5" cy="143.6094" fill="none" rx="3" ry="3" style="stroke: #038048; stroke-width: 1.0;"/><text fill="#000000" font-family="sans-serif" font-size="11" lengthAdjust="spacingAndGlyphs" textLength="241" x="219.5" y="146.8198">carriedWeapons : List&lt;CharacterWeapon&gt;</text><ellipse cx="210.5" cy="156.4141" fill="none" rx="3" ry="3" style="stroke: #038048; stroke-width: 1.0;"/><text fill="#000000" font-family="sans-serif" font-size="11" lengthAdjust="spacingAndGlyphs" textLength="60" x="219.5" y="159.6245">lootTable :</text><line style="stroke: #A80036; stroke-width: 1.5;" x1="200.5" x2="465.5" y1="166.2188" y2="166.2188"/><!--MD5=[bec406bbb703f25c0089a8318534cc7f]
class CharacterWeapon--><rect fill="#FEFECE" filter="url(#frau5ditcnpio)" height="99.2188" id="CharacterWeapon" style="stroke: #A80036; stroke-width: 1.5;" width="156" x="502" y="75"/><ellipse cx="517" cy="91" fill="#FF0000" rx="11" ry="11" style="stroke: #A80036; stroke-width: 1.0;"/><path d="M521.2813,86.9688 L521.2813,88.4688 C521.2813,88.9375 521.25,89.0781 521.1406,89.25 C520.9688,89.4688 520.7188,89.6094 520.4531,89.6094 C520.2188,89.6094 519.9844,89.5 519.8438,89.375 C519.7188,89.2344 519.7188,89.2344 519.6094,88.6875 C519.4531,88.0156 518.6406,87.5469 517.5781,87.5469 C516.5156,87.5469 515.6563,88.1094 515.6563,88.8438 C515.6563,89.2031 515.9219,89.5938 516.2969,89.7813 C516.625,89.9531 516.7188,89.9844 517.9844,90.2188 C519.4688,90.4844 520.1094,90.7344 520.6406,91.1563 C521.3281,91.7031 521.6406,92.3906 521.6406,93.2813 C521.6406,95.0469 520.0781,96.2344 517.75,96.2344 C516.8281,96.2344 515.9375,96.0156 515.0938,95.5781 C514.8125,95.9219 514.6875,95.9844 514.4219,95.9844 C513.8281,95.9844 513.5469,95.625 513.5469,94.8594 L513.5469,93.7344 C513.5469,93.3125 513.5938,93.125 513.7031,92.9531 C513.875,92.7344 514.125,92.6094 514.4063,92.6094 C514.6406,92.6094 514.8594,92.7031 515.0156,92.8594 C515.1406,92.9688 515.1406,92.9688 515.2656,93.4375 C515.4375,94.0469 516.5156,94.5313 517.6406,94.5313 C518.8906,94.5313 519.875,93.9844 519.875,93.25 C519.875,92.8906 519.6406,92.5469 519.2656,92.3438 C518.9063,92.1563 518.6406,92.0938 517.4844,91.8906 C516.375,91.7031 515.8281,91.5313 515.2813,91.2188 C514.4219,90.7344 513.8906,89.8281 513.8906,88.8594 C513.8906,87.1406 515.4688,85.8438 517.5781,85.8438 C518.4531,85.8438 519.2031,86.0313 519.7969,86.4063 C519.9688,85.9844 520.1094,85.8438 520.4531,85.8438 C520.75,85.8438 521.0313,86 521.1719,86.2344 C521.2656,86.3906 521.2813,86.5313 521.2813,86.9688 Z "/><ellipse cx="536" cy="90.5" fill="#84BE84" rx="3" ry="3" style="stroke: #038048; stroke-width: 1.0;"/><text fill="#000000" font-family="sans-serif" font-size="12" lengthAdjust="spacingAndGlyphs" textLength="113" x="542" y="95.1543">CharacterWeapon</text><line style="stroke: #A80036; stroke-width: 1.5;" x1="503" x2="657" y1="107" y2="107"/><ellipse cx="513" cy="118" fill="none" rx="3" ry="3" style="stroke: #038048; stroke-width: 1.0;"/><text fill="#000000" font-family="sans-serif" font-size="11" lengthAdjust="spacingAndGlyphs" textLength="107" x="522" y="121.2104">type : WeaponType</text><ellipse cx="513" cy="130.8047" fill="none" rx="3" ry="3" style="stroke: #038048; stroke-width: 1.0;"/><text fill="#000000" font-family="sans-serif" font-size="11" lengthAdjust="spacingAndGlyphs" textLength="112" x="522" y="134.0151">baseDamage : float</text><ellipse cx="513" cy="143.6094" fill="none" rx="3" ry="3" style="stroke: #038048; stroke-width: 1.0;"/><text fill="#000000" font-family="sans-serif" font-size="11" lengthAdjust="spacingAndGlyphs" textLength="70" x="522" y="146.8198">range : float</text><line style="stroke: #A80036; stroke-width: 1.5;" x1="503" x2="657" y1="153.4141" y2="153.4141"/><ellipse cx="513" cy="164.4141" fill="#84BE84" rx="3" ry="3" style="stroke: #038048; stroke-width: 1.0;"/><text fill="#000000" font-family="sans-serif" font-size="11" lengthAdjust="spacingAndGlyphs" textLength="74" x="522" y="167.6245">UseWeapon()</text><!--MD5=[3cf3ef819d009ae7fd40eb154030a1fd]
class CharacterStats--><rect fill="#FEFECE" filter="url(#frau5ditcnpio)" height="99.2188" id="CharacterStats" style="stroke: #A80036; stroke-width: 1.5;" width="138" x="166" y="466"/><ellipse cx="181" cy="482" fill="#FF0000" rx="11" ry="11" style="stroke: #A80036; stroke-width: 1.0;"/><path d="M185.2813,477.9688 L185.2813,479.4688 C185.2813,479.9375 185.25,480.0781 185.1406,480.25 C184.9688,480.4688 184.7188,480.6094 184.4531,480.6094 C184.2188,480.6094 183.9844,480.5 183.8438,480.375 C183.7188,480.2344 183.7188,480.2344 183.6094,479.6875 C183.4531,479.0156 182.6406,478.5469 181.5781,478.5469 C180.5156,478.5469 179.6563,479.1094 179.6563,479.8438 C179.6563,480.2031 179.9219,480.5938 180.2969,480.7813 C180.625,480.9531 180.7188,480.9844 181.9844,481.2188 C183.4688,481.4844 184.1094,481.7344 184.6406,482.1563 C185.3281,482.7031 185.6406,483.3906 185.6406,484.2813 C185.6406,486.0469 184.0781,487.2344 181.75,487.2344 C180.8281,487.2344 179.9375,487.0156 179.0938,486.5781 C178.8125,486.9219 178.6875,486.9844 178.4219,486.9844 C177.8281,486.9844 177.5469,486.625 177.5469,485.8594 L177.5469,484.7344 C177.5469,484.3125 177.5938,484.125 177.7031,483.9531 C177.875,483.7344 178.125,483.6094 178.4063,483.6094 C178.6406,483.6094 178.8594,483.7031 179.0156,483.8594 C179.1406,483.9688 179.1406,483.9688 179.2656,484.4375 C179.4375,485.0469 180.5156,485.5313 181.6406,485.5313 C182.8906,485.5313 183.875,484.9844 183.875,484.25 C183.875,483.8906 183.6406,483.5469 183.2656,483.3438 C182.9063,483.1563 182.6406,483.0938 181.4844,482.8906 C180.375,482.7031 179.8281,482.5313 179.2813,482.2188 C178.4219,481.7344 177.8906,480.8281 177.8906,479.8594 C177.8906,478.1406 179.4688,476.8438 181.5781,476.8438 C182.4531,476.8438 183.2031,477.0313 183.7969,477.4063 C183.9688,476.9844 184.1094,476.8438 184.4531,476.8438 C184.75,476.8438 185.0313,477 185.1719,477.2344 C185.2656,477.3906 185.2813,477.5313 185.2813,477.9688 Z "/><ellipse cx="200" cy="481.5" fill="#84BE84" rx="3" ry="3" style="stroke: #038048; stroke-width: 1.0;"/><text fill="#000000" font-family="sans-serif" font-size="12" lengthAdjust="spacingAndGlyphs" textLength="95" x="206" y="486.1543">CharacterStats</text><line style="stroke: #A80036; stroke-width: 1.5;" x1="167" x2="303" y1="498" y2="498"/><ellipse cx="177" cy="509" fill="none" rx="3" ry="3" style="stroke: #038048; stroke-width: 1.0;"/><text fill="#000000" font-family="sans-serif" font-size="11" lengthAdjust="spacingAndGlyphs" textLength="97" x="186" y="512.2104">maxSpeed : float</text><ellipse cx="177" cy="521.8047" fill="none" rx="3" ry="3" style="stroke: #038048; stroke-width: 1.0;"/><text fill="#000000" font-family="sans-serif" font-size="11" lengthAdjust="spacingAndGlyphs" textLength="106" x="186" y="525.0151">acceleration : float</text><ellipse cx="177" cy="534.6094" fill="none" rx="3" ry="3" style="stroke: #038048; stroke-width: 1.0;"/><text fill="#000000" font-family="sans-serif" font-size="11" lengthAdjust="spacingAndGlyphs" textLength="107" x="186" y="537.8198">deceleration : float</text><ellipse cx="177" cy="547.4141" fill="none" rx="3" ry="3" style="stroke: #038048; stroke-width: 1.0;"/><text fill="#000000" font-family="sans-serif" font-size="11" lengthAdjust="spacingAndGlyphs" textLength="108" x="186" y="550.6245">maxStamina : float</text><line style="stroke: #A80036; stroke-width: 1.5;" x1="167" x2="303" y1="557.2188" y2="557.2188"/><!--MD5=[71e83e5ad07cede55897bfa0d94477b0]
class VehicleStats--><rect fill="#FEFECE" filter="url(#frau5ditcnpio)" height="124.8281" id="VehicleStats" style="stroke: #A80036; stroke-width: 1.5;" width="164" x="339" y="453"/><ellipse cx="373.35" cy="469" fill="#FF0000" rx="11" ry="11" style="stroke: #A80036; stroke-width: 1.0;"/><path d="M377.6313,464.9688 L377.6313,466.4688 C377.6313,466.9375 377.6,467.0781 377.4906,467.25 C377.3188,467.4688 377.0688,467.6094 376.8031,467.6094 C376.5688,467.6094 376.3344,467.5 376.1938,467.375 C376.0688,467.2344 376.0688,467.2344 375.9594,466.6875 C375.8031,466.0156 374.9906,465.5469 373.9281,465.5469 C372.8656,465.5469 372.0063,466.1094 372.0063,466.8438 C372.0063,467.2031 372.2719,467.5938 372.6469,467.7813 C372.975,467.9531 373.0688,467.9844 374.3344,468.2188 C375.8188,468.4844 376.4594,468.7344 376.9906,469.1563 C377.6781,469.7031 377.9906,470.3906 377.9906,471.2813 C377.9906,473.0469 376.4281,474.2344 374.1,474.2344 C373.1781,474.2344 372.2875,474.0156 371.4438,473.5781 C371.1625,473.9219 371.0375,473.9844 370.7719,473.9844 C370.1781,473.9844 369.8969,473.625 369.8969,472.8594 L369.8969,471.7344 C369.8969,471.3125 369.9438,471.125 370.0531,470.9531 C370.225,470.7344 370.475,470.6094 370.7563,470.6094 C370.9906,470.6094 371.2094,470.7031 371.3656,470.8594 C371.4906,470.9688 371.4906,470.9688 371.6156,471.4375 C371.7875,472.0469 372.8656,472.5313 373.9906,472.5313 C375.2406,472.5313 376.225,471.9844 376.225,471.25 C376.225,470.8906 375.9906,470.5469 375.6156,470.3438 C375.2563,470.1563 374.9906,470.0938 373.8344,469.8906 C372.725,469.7031 372.1781,469.5313 371.6313,469.2188 C370.7719,468.7344 370.2406,467.8281 370.2406,466.8594 C370.2406,465.1406 371.8188,463.8438 373.9281,463.8438 C374.8031,463.8438 375.5531,464.0313 376.1469,464.4063 C376.3188,463.9844 376.4594,463.8438 376.8031,463.8438 C377.1,463.8438 377.3813,464 377.5219,464.2344 C377.6156,464.3906 377.6313,464.5313 377.6313,464.9688 Z "/><ellipse cx="396.65" cy="468.5" fill="#84BE84" rx="3" ry="3" style="stroke: #038048; stroke-width: 1.0;"/><text fill="#000000" font-family="sans-serif" font-size="12" lengthAdjust="spacingAndGlyphs" textLength="78" x="402.65" y="473.1543">VehicleStats</text><line style="stroke: #A80036; stroke-width: 1.5;" x1="340" x2="502" y1="485" y2="485"/><ellipse cx="350" cy="496" fill="none" rx="3" ry="3" style="stroke: #038048; stroke-width: 1.0;"/><text fill="#000000" font-family="sans-serif" font-size="11" lengthAdjust="spacingAndGlyphs" textLength="97" x="359" y="499.2104">maxSpeed : float</text><ellipse cx="350" cy="508.8047" fill="none" rx="3" ry="3" style="stroke: #038048; stroke-width: 1.0;"/><text fill="#000000" font-family="sans-serif" font-size="11" lengthAdjust="spacingAndGlyphs" textLength="106" x="359" y="512.0151">acceleration : float</text><ellipse cx="350" cy="521.6094" fill="none" rx="3" ry="3" style="stroke: #038048; stroke-width: 1.0;"/><text fill="#000000" font-family="sans-serif" font-size="11" lengthAdjust="spacingAndGlyphs" textLength="107" x="359" y="524.8198">deceleration : float</text><ellipse cx="350" cy="534.4141" fill="none" rx="3" ry="3" style="stroke: #038048; stroke-width: 1.0;"/><text fill="#000000" font-family="sans-serif" font-size="11" lengthAdjust="spacingAndGlyphs" textLength="123" x="359" y="537.6245">vehicleDamage : float</text><ellipse cx="350" cy="547.2188" fill="none" rx="3" ry="3" style="stroke: #038048; stroke-width: 1.0;"/><text fill="#000000" font-family="sans-serif" font-size="11" lengthAdjust="spacingAndGlyphs" textLength="138" x="359" y="550.4292">damageReduction : float</text><ellipse cx="350" cy="560.0234" fill="none" rx="3" ry="3" style="stroke: #038048; stroke-width: 1.0;"/><text fill="#000000" font-family="sans-serif" font-size="11" lengthAdjust="spacingAndGlyphs" textLength="84" x="359" y="563.2339">maxFuel : float</text><line style="stroke: #A80036; stroke-width: 1.5;" x1="340" x2="502" y1="569.8281" y2="569.8281"/><!--MD5=[8f211612619ac3b7f279f65aa1bdc49c]
class TurretStats--><rect fill="#FEFECE" filter="url(#frau5ditcnpio)" height="86.4141" id="TurretStats" style="stroke: #A80036; stroke-width: 1.5;" width="176" x="538" y="472.5"/><ellipse cx="580.9" cy="488.5" fill="#FF0000" rx="11" ry="11" style="stroke: #A80036; stroke-width: 1.0;"/><path d="M585.1813,484.4688 L585.1813,485.9688 C585.1813,486.4375 585.15,486.5781 585.0406,486.75 C584.8688,486.9688 584.6188,487.1094 584.3531,487.1094 C584.1188,487.1094 583.8844,487 583.7438,486.875 C583.6188,486.7344 583.6188,486.7344 583.5094,486.1875 C583.3531,485.5156 582.5406,485.0469 581.4781,485.0469 C580.4156,485.0469 579.5563,485.6094 579.5563,486.3438 C579.5563,486.7031 579.8219,487.0938 580.1969,487.2813 C580.525,487.4531 580.6188,487.4844 581.8844,487.7188 C583.3688,487.9844 584.0094,488.2344 584.5406,488.6563 C585.2281,489.2031 585.5406,489.8906 585.5406,490.7813 C585.5406,492.5469 583.9781,493.7344 581.65,493.7344 C580.7281,493.7344 579.8375,493.5156 578.9938,493.0781 C578.7125,493.4219 578.5875,493.4844 578.3219,493.4844 C577.7281,493.4844 577.4469,493.125 577.4469,492.3594 L577.4469,491.2344 C577.4469,490.8125 577.4938,490.625 577.6031,490.4531 C577.775,490.2344 578.025,490.1094 578.3063,490.1094 C578.5406,490.1094 578.7594,490.2031 578.9156,490.3594 C579.0406,490.4688 579.0406,490.4688 579.1656,490.9375 C579.3375,491.5469 580.4156,492.0313 581.5406,492.0313 C582.7906,492.0313 583.775,491.4844 583.775,490.75 C583.775,490.3906 583.5406,490.0469 583.1656,489.8438 C582.8063,489.6563 582.5406,489.5938 581.3844,489.3906 C580.275,489.2031 579.7281,489.0313 579.1813,488.7188 C578.3219,488.2344 577.7906,487.3281 577.7906,486.3594 C577.7906,484.6406 579.3688,483.3438 581.4781,483.3438 C582.3531,483.3438 583.1031,483.5313 583.6969,483.9063 C583.8688,483.4844 584.0094,483.3438 584.3531,483.3438 C584.65,483.3438 584.9313,483.5 585.0719,483.7344 C585.1656,483.8906 585.1813,484.0313 585.1813,484.4688 Z "/><ellipse cx="606.1" cy="488" fill="#84BE84" rx="3" ry="3" style="stroke: #038048; stroke-width: 1.0;"/><text fill="#000000" font-family="sans-serif" font-size="12" lengthAdjust="spacingAndGlyphs" textLength="71" x="612.1" y="492.6543">TurretStats</text><line style="stroke: #A80036; stroke-width: 1.5;" x1="539" x2="713" y1="504.5" y2="504.5"/><ellipse cx="549" cy="515.5" fill="none" rx="3" ry="3" style="stroke: #038048; stroke-width: 1.0;"/><text fill="#000000" font-family="sans-serif" font-size="11" lengthAdjust="spacingAndGlyphs" textLength="134" x="558" y="518.7104">projectile : GameObject</text><ellipse cx="549" cy="528.3047" fill="none" rx="3" ry="3" style="stroke: #038048; stroke-width: 1.0;"/><text fill="#000000" font-family="sans-serif" font-size="11" lengthAdjust="spacingAndGlyphs" textLength="150" x="558" y="531.5151">shootSpeed : GameObject</text><ellipse cx="549" cy="541.1094" fill="none" rx="3" ry="3" style="stroke: #038048; stroke-width: 1.0;"/><text fill="#000000" font-family="sans-serif" font-size="11" lengthAdjust="spacingAndGlyphs" textLength="106" x="558" y="544.3198">fireType : FireType</text><line style="stroke: #A80036; stroke-width: 1.5;" x1="539" x2="713" y1="550.9141" y2="550.9141"/><!--MD5=[b6e7489d48131927402bd74788569eb6]
class Camper--><rect fill="#FEFECE" filter="url(#frau5ditcnpio)" height="124.8281" id="Camper" style="stroke: #A80036; stroke-width: 1.5;" width="145" x="408.5" y="685"/><ellipse cx="447.8" cy="701" fill="#90EE90" rx="11" ry="11" style="stroke: #A80036; stroke-width: 1.0;"/><path d="M444.7063,699.3906 L444.7063,704.2969 L445.3156,704.2969 C445.7688,704.2969 445.9094,704.3281 446.0969,704.4531 C446.3156,704.625 446.425,704.875 446.425,705.1563 C446.425,705.4375 446.2844,705.7188 446.0188,705.875 C445.9094,705.9531 445.6438,706 445.3156,706 L443.1125,706 C442.7063,706 442.4875,705.9531 442.3313,705.8281 C442.1125,705.6719 441.9719,705.4219 441.9719,705.1563 C441.9719,704.6094 442.3469,704.2969 443.0188,704.2969 L443.0188,697.7813 C442.4563,697.7344 442.1281,697.4375 442.1281,696.9219 C442.1281,696.6563 442.2844,696.3594 442.5344,696.1875 C442.6281,696.1406 442.9875,696.0781 443.1906,696.0781 C443.2219,696.0781 443.2375,696.0781 443.2531,696.0938 L445.1125,696.0938 L447.4563,701.1406 L449.7531,696.0938 L451.6125,696.0938 C452.0813,696.0938 452.2219,696.125 452.3938,696.2344 C452.5969,696.4063 452.7375,696.6719 452.7375,696.9375 C452.7375,697.4375 452.4094,697.7344 451.8469,697.7813 L451.8469,704.2969 C452.5188,704.2969 452.8938,704.6094 452.8938,705.1563 C452.8938,705.4375 452.7375,705.7188 452.4875,705.875 C452.3625,705.9531 452.1125,706 451.7688,706 L449.5656,706 C449.175,706 448.925,705.9531 448.8,705.8281 C448.5656,705.6719 448.4406,705.4063 448.4406,705.1563 C448.4406,704.8594 448.5969,704.5781 448.8469,704.4219 C449.0031,704.3125 449.1125,704.2969 449.5656,704.2969 L450.1594,704.2969 L450.1594,699.3906 L448.2688,703.6563 L446.7219,703.6563 Z "/><ellipse cx="472.2" cy="700.5" fill="#84BE84" rx="3" ry="3" style="stroke: #038048; stroke-width: 1.0;"/><text fill="#000000" font-family="sans-serif" font-size="12" lengthAdjust="spacingAndGlyphs" textLength="48" x="478.2" y="705.1543">Camper</text><line style="stroke: #A80036; stroke-width: 1.5;" x1="409.5" x2="552.5" y1="717" y2="717"/><ellipse cx="419.5" cy="728" fill="none" rx="3" ry="3" style="stroke: #038048; stroke-width: 1.0;"/><text fill="#000000" font-family="sans-serif" font-size="11" lengthAdjust="spacingAndGlyphs" textLength="111" x="428.5" y="731.2104">stats : VehicleStats</text><ellipse cx="419.5" cy="740.8047" fill="none" rx="3" ry="3" style="stroke: #038048; stroke-width: 1.0;"/><text fill="#000000" font-family="sans-serif" font-size="11" lengthAdjust="spacingAndGlyphs" textLength="119" x="428.5" y="744.0151">turret : VehicleTurret</text><ellipse cx="419.5" cy="753.6094" fill="none" rx="3" ry="3" style="stroke: #038048; stroke-width: 1.0;"/><text fill="#000000" font-family="sans-serif" font-size="11" lengthAdjust="spacingAndGlyphs" textLength="83" x="428.5" y="756.8198">currFuel : float</text><line style="stroke: #A80036; stroke-width: 1.5;" x1="409.5" x2="552.5" y1="763.4141" y2="763.4141"/><ellipse cx="419.5" cy="774.4141" fill="#84BE84" rx="3" ry="3" style="stroke: #038048; stroke-width: 1.0;"/><text fill="#000000" font-family="sans-serif" font-size="11" lengthAdjust="spacingAndGlyphs" textLength="67" x="428.5" y="777.6245">Accelerate()</text><ellipse cx="419.5" cy="787.2188" fill="#84BE84" rx="3" ry="3" style="stroke: #038048; stroke-width: 1.0;"/><text fill="#000000" font-family="sans-serif" font-size="11" lengthAdjust="spacingAndGlyphs" textLength="69" x="428.5" y="790.4292">Decelerate()</text><rect fill="#F24D5C" height="6" style="stroke: #C82930; stroke-width: 1.0;" width="6" x="416.5" y="797.0234"/><text fill="#000000" font-family="sans-serif" font-size="11" lengthAdjust="spacingAndGlyphs" textLength="37" x="428.5" y="803.2339">Move()</text><!--MD5=[791d8e0ecc8e88e7d45627ed6e0e55b8]
class VehicleTurret--><rect fill="#FEFECE" filter="url(#frau5ditcnpio)" height="73.6094" id="VehicleTurret" style="stroke: #A80036; stroke-width: 1.5;" width="143" x="588.5" y="710.5"/><ellipse cx="611.15" cy="726.5" fill="#90EE90" rx="11" ry="11" style="stroke: #A80036; stroke-width: 1.0;"/><path d="M608.0563,724.8906 L608.0563,729.7969 L608.6656,729.7969 C609.1188,729.7969 609.2594,729.8281 609.4469,729.9531 C609.6656,730.125 609.775,730.375 609.775,730.6563 C609.775,730.9375 609.6344,731.2188 609.3688,731.375 C609.2594,731.4531 608.9938,731.5 608.6656,731.5 L606.4625,731.5 C606.0563,731.5 605.8375,731.4531 605.6813,731.3281 C605.4625,731.1719 605.3219,730.9219 605.3219,730.6563 C605.3219,730.1094 605.6969,729.7969 606.3688,729.7969 L606.3688,723.2813 C605.8063,723.2344 605.4781,722.9375 605.4781,722.4219 C605.4781,722.1563 605.6344,721.8594 605.8844,721.6875 C605.9781,721.6406 606.3375,721.5781 606.5406,721.5781 C606.5719,721.5781 606.5875,721.5781 606.6031,721.5938 L608.4625,721.5938 L610.8063,726.6406 L613.1031,721.5938 L614.9625,721.5938 C615.4313,721.5938 615.5719,721.625 615.7438,721.7344 C615.9469,721.9063 616.0875,722.1719 616.0875,722.4375 C616.0875,722.9375 615.7594,723.2344 615.1969,723.2813 L615.1969,729.7969 C615.8688,729.7969 616.2438,730.1094 616.2438,730.6563 C616.2438,730.9375 616.0875,731.2188 615.8375,731.375 C615.7125,731.4531 615.4625,731.5 615.1188,731.5 L612.9156,731.5 C612.525,731.5 612.275,731.4531 612.15,731.3281 C611.9156,731.1719 611.7906,730.9063 611.7906,730.6563 C611.7906,730.3594 611.9469,730.0781 612.1969,729.9219 C612.3531,729.8125 612.4625,729.7969 612.9156,729.7969 L613.5094,729.7969 L613.5094,724.8906 L611.6188,729.1563 L610.0719,729.1563 Z "/><ellipse cx="631.85" cy="726" fill="#84BE84" rx="3" ry="3" style="stroke: #038048; stroke-width: 1.0;"/><text fill="#000000" font-family="sans-serif" font-size="12" lengthAdjust="spacingAndGlyphs" textLength="83" x="637.85" y="730.6543">VehicleTurret</text><line style="stroke: #A80036; stroke-width: 1.5;" x1="589.5" x2="730.5" y1="742.5" y2="742.5"/><ellipse cx="599.5" cy="753.5" fill="none" rx="3" ry="3" style="stroke: #038048; stroke-width: 1.0;"/><text fill="#000000" font-family="sans-serif" font-size="11" lengthAdjust="spacingAndGlyphs" textLength="117" x="608.5" y="756.7104">rotationSpeed : float</text><line style="stroke: #A80036; stroke-width: 1.5;" x1="589.5" x2="730.5" y1="763.3047" y2="763.3047"/><ellipse cx="599.5" cy="774.3047" fill="#84BE84" rx="3" ry="3" style="stroke: #038048; stroke-width: 1.0;"/><text fill="#000000" font-family="sans-serif" font-size="11" lengthAdjust="spacingAndGlyphs" textLength="44" x="608.5" y="777.5151">Rotate()</text><!--MD5=[d1d00cce9cfd1a462ab2f04c5a4bd125]
class MapManager--><rect fill="#FEFECE" filter="url(#frau5ditcnpio)" height="66.7422" id="MapManager" style="stroke: #A80036; stroke-width: 1.5;" width="194" x="926" y="91"/><ellipse cx="968" cy="109.9688" fill="#90EE90" rx="11" ry="11" style="stroke: #A80036; stroke-width: 1.0;"/><path d="M964.9063,108.3594 L964.9063,113.2656 L965.5156,113.2656 C965.9688,113.2656 966.1094,113.2969 966.2969,113.4219 C966.5156,113.5938 966.625,113.8438 966.625,114.125 C966.625,114.4063 966.4844,114.6875 966.2188,114.8438 C966.1094,114.9219 965.8438,114.9688 965.5156,114.9688 L963.3125,114.9688 C962.9063,114.9688 962.6875,114.9219 962.5313,114.7969 C962.3125,114.6406 962.1719,114.3906 962.1719,114.125 C962.1719,113.5781 962.5469,113.2656 963.2188,113.2656 L963.2188,106.75 C962.6563,106.7031 962.3281,106.4063 962.3281,105.8906 C962.3281,105.625 962.4844,105.3281 962.7344,105.1563 C962.8281,105.1094 963.1875,105.0469 963.3906,105.0469 C963.4219,105.0469 963.4375,105.0469 963.4531,105.0625 L965.3125,105.0625 L967.6563,110.1094 L969.9531,105.0625 L971.8125,105.0625 C972.2813,105.0625 972.4219,105.0938 972.5938,105.2031 C972.7969,105.375 972.9375,105.6406 972.9375,105.9063 C972.9375,106.4063 972.6094,106.7031 972.0469,106.75 L972.0469,113.2656 C972.7188,113.2656 973.0938,113.5781 973.0938,114.125 C973.0938,114.4063 972.9375,114.6875 972.6875,114.8438 C972.5625,114.9219 972.3125,114.9688 971.9688,114.9688 L969.7656,114.9688 C969.375,114.9688 969.125,114.9219 969,114.7969 C968.7656,114.6406 968.6406,114.375 968.6406,114.125 C968.6406,113.8281 968.7969,113.5469 969.0469,113.3906 C969.2031,113.2813 969.3125,113.2656 969.7656,113.2656 L970.3594,113.2656 L970.3594,108.3594 L968.4688,112.625 L966.9219,112.625 Z "/><text fill="#000000" font-family="sans-serif" font-size="12" font-style="italic" lengthAdjust="spacingAndGlyphs" textLength="106" x="986" y="107.1387">«SingletonDDOL»</text><ellipse cx="998" cy="116.4531" fill="#84BE84" rx="3" ry="3" style="stroke: #038048; stroke-width: 1.0;"/><text fill="#000000" font-family="sans-serif" font-size="12" lengthAdjust="spacingAndGlyphs" textLength="81" x="1004" y="121.1074">MapManager</text><line style="stroke: #A80036; stroke-width: 1.5;" x1="927" x2="1119" y1="128.9375" y2="128.9375"/><line style="stroke: #A80036; stroke-width: 1.5;" x1="927" x2="1119" y1="136.9375" y2="136.9375"/><ellipse cx="937" cy="147.9375" fill="#84BE84" rx="3" ry="3" style="stroke: #038048; stroke-width: 1.0;"/><text fill="#000000" font-family="sans-serif" font-size="11" lengthAdjust="spacingAndGlyphs" textLength="168" x="946" y="151.1479">ChangeScenario(sceneName)</text><!--MD5=[3618a374bd976662547feba7b42f282d]
class Scenario--><rect fill="#FEFECE" filter="url(#frau5ditcnpio)" height="48" id="Scenario" style="stroke: #A80036; stroke-width: 1.5;" width="98" x="793" y="100.5"/><ellipse cx="808" cy="116.5" fill="#90EE90" rx="11" ry="11" style="stroke: #A80036; stroke-width: 1.0;"/><path d="M804.9063,114.8906 L804.9063,119.7969 L805.5156,119.7969 C805.9688,119.7969 806.1094,119.8281 806.2969,119.9531 C806.5156,120.125 806.625,120.375 806.625,120.6563 C806.625,120.9375 806.4844,121.2188 806.2188,121.375 C806.1094,121.4531 805.8438,121.5 805.5156,121.5 L803.3125,121.5 C802.9063,121.5 802.6875,121.4531 802.5313,121.3281 C802.3125,121.1719 802.1719,120.9219 802.1719,120.6563 C802.1719,120.1094 802.5469,119.7969 803.2188,119.7969 L803.2188,113.2813 C802.6563,113.2344 802.3281,112.9375 802.3281,112.4219 C802.3281,112.1563 802.4844,111.8594 802.7344,111.6875 C802.8281,111.6406 803.1875,111.5781 803.3906,111.5781 C803.4219,111.5781 803.4375,111.5781 803.4531,111.5938 L805.3125,111.5938 L807.6563,116.6406 L809.9531,111.5938 L811.8125,111.5938 C812.2813,111.5938 812.4219,111.625 812.5938,111.7344 C812.7969,111.9063 812.9375,112.1719 812.9375,112.4375 C812.9375,112.9375 812.6094,113.2344 812.0469,113.2813 L812.0469,119.7969 C812.7188,119.7969 813.0938,120.1094 813.0938,120.6563 C813.0938,120.9375 812.9375,121.2188 812.6875,121.375 C812.5625,121.4531 812.3125,121.5 811.9688,121.5 L809.7656,121.5 C809.375,121.5 809.125,121.4531 809,121.3281 C808.7656,121.1719 808.6406,120.9063 808.6406,120.6563 C808.6406,120.3594 808.7969,120.0781 809.0469,119.9219 C809.2031,119.8125 809.3125,119.7969 809.7656,119.7969 L810.3594,119.7969 L810.3594,114.8906 L808.4688,119.1563 L806.9219,119.1563 Z "/><ellipse cx="827" cy="116" fill="#84BE84" rx="3" ry="3" style="stroke: #038048; stroke-width: 1.0;"/><text fill="#000000" font-family="sans-serif" font-size="12" lengthAdjust="spacingAndGlyphs" textLength="55" x="833" y="120.6543">Scenario</text><line style="stroke: #A80036; stroke-width: 1.5;" x1="794" x2="890" y1="132.5" y2="132.5"/><line style="stroke: #A80036; stroke-width: 1.5;" x1="794" x2="890" y1="140.5" y2="140.5"/><!--MD5=[82d9c97a467af7c0b2c072e754b85475]
class GameController--><rect fill="#FEFECE" filter="url(#frau5ditcnpio)" height="66.7422" id="GameController" style="stroke: #A80036; stroke-width: 1.5;" width="203" x="961.5" y="714"/><ellipse cx="1004.85" cy="732.9688" fill="#90EE90" rx="11" ry="11" style="stroke: #A80036; stroke-width: 1.0;"/><path d="M1001.7563,731.3594 L1001.7563,736.2656 L1002.3656,736.2656 C1002.8188,736.2656 1002.9594,736.2969 1003.1469,736.4219 C1003.3656,736.5938 1003.475,736.8438 1003.475,737.125 C1003.475,737.4063 1003.3344,737.6875 1003.0688,737.8438 C1002.9594,737.9219 1002.6938,737.9688 1002.3656,737.9688 L1000.1625,737.9688 C999.7563,737.9688 999.5375,737.9219 999.3813,737.7969 C999.1625,737.6406 999.0219,737.3906 999.0219,737.125 C999.0219,736.5781 999.3969,736.2656 1000.0688,736.2656 L1000.0688,729.75 C999.5063,729.7031 999.1781,729.4063 999.1781,728.8906 C999.1781,728.625 999.3344,728.3281 999.5844,728.1563 C999.6781,728.1094 1000.0375,728.0469 1000.2406,728.0469 C1000.2719,728.0469 1000.2875,728.0469 1000.3031,728.0625 L1002.1625,728.0625 L1004.5063,733.1094 L1006.8031,728.0625 L1008.6625,728.0625 C1009.1313,728.0625 1009.2719,728.0938 1009.4438,728.2031 C1009.6469,728.375 1009.7875,728.6406 1009.7875,728.9063 C1009.7875,729.4063 1009.4594,729.7031 1008.8969,729.75 L1008.8969,736.2656 C1009.5688,736.2656 1009.9438,736.5781 1009.9438,737.125 C1009.9438,737.4063 1009.7875,737.6875 1009.5375,737.8438 C1009.4125,737.9219 1009.1625,737.9688 1008.8188,737.9688 L1006.6156,737.9688 C1006.225,737.9688 1005.975,737.9219 1005.85,737.7969 C1005.6156,737.6406 1005.4906,737.375 1005.4906,737.125 C1005.4906,736.8281 1005.6469,736.5469 1005.8969,736.3906 C1006.0531,736.2813 1006.1625,736.2656 1006.6156,736.2656 L1007.2094,736.2656 L1007.2094,731.3594 L1005.3188,735.625 L1003.7719,735.625 Z "/><text fill="#000000" font-family="sans-serif" font-size="12" font-style="italic" lengthAdjust="spacingAndGlyphs" textLength="106" x="1026.15" y="730.1387">«SingletonDDOL»</text><ellipse cx="1030.15" cy="739.4531" fill="#84BE84" rx="3" ry="3" style="stroke: #038048; stroke-width: 1.0;"/><text fill="#000000" font-family="sans-serif" font-size="12" lengthAdjust="spacingAndGlyphs" textLength="97" x="1036.15" y="744.1074">GameController</text><line style="stroke: #A80036; stroke-width: 1.5;" x1="962.5" x2="1163.5" y1="751.9375" y2="751.9375"/><ellipse cx="972.5" cy="762.9375" fill="none" rx="3" ry="3" style="stroke: #038048; stroke-width: 1.0;"/><text fill="#000000" font-family="sans-serif" font-size="11" lengthAdjust="spacingAndGlyphs" textLength="177" x="981.5" y="766.1479">playerInventory : List&lt;ResSet&gt;</text><line style="stroke: #A80036; stroke-width: 1.5;" x1="962.5" x2="1163.5" y1="772.7422" y2="772.7422"/><!--MD5=[ec8c5c191c28649e5b2d3488c00cbdbc]
class LootableObject--><rect fill="#FEFECE" filter="url(#frau5ditcnpio)" height="53.9375" id="LootableObject" style="stroke: #A80036; stroke-width: 1.5;" width="137" x="978.5" y="488.5"/><ellipse cx="993.5" cy="507.4688" fill="#90EE90" rx="11" ry="11" style="stroke: #A80036; stroke-width: 1.0;"/><path d="M990.4063,505.8594 L990.4063,510.7656 L991.0156,510.7656 C991.4688,510.7656 991.6094,510.7969 991.7969,510.9219 C992.0156,511.0938 992.125,511.3438 992.125,511.625 C992.125,511.9063 991.9844,512.1875 991.7188,512.3438 C991.6094,512.4219 991.3438,512.4688 991.0156,512.4688 L988.8125,512.4688 C988.4063,512.4688 988.1875,512.4219 988.0313,512.2969 C987.8125,512.1406 987.6719,511.8906 987.6719,511.625 C987.6719,511.0781 988.0469,510.7656 988.7188,510.7656 L988.7188,504.25 C988.1563,504.2031 987.8281,503.9063 987.8281,503.3906 C987.8281,503.125 987.9844,502.8281 988.2344,502.6563 C988.3281,502.6094 988.6875,502.5469 988.8906,502.5469 C988.9219,502.5469 988.9375,502.5469 988.9531,502.5625 L990.8125,502.5625 L993.1563,507.6094 L995.4531,502.5625 L997.3125,502.5625 C997.7813,502.5625 997.9219,502.5938 998.0938,502.7031 C998.2969,502.875 998.4375,503.1406 998.4375,503.4063 C998.4375,503.9063 998.1094,504.2031 997.5469,504.25 L997.5469,510.7656 C998.2188,510.7656 998.5938,511.0781 998.5938,511.625 C998.5938,511.9063 998.4375,512.1875 998.1875,512.3438 C998.0625,512.4219 997.8125,512.4688 997.4688,512.4688 L995.2656,512.4688 C994.875,512.4688 994.625,512.4219 994.5,512.2969 C994.2656,512.1406 994.1406,511.875 994.1406,511.625 C994.1406,511.3281 994.2969,511.0469 994.5469,510.8906 C994.7031,510.7813 994.8125,510.7656 995.2656,510.7656 L995.8594,510.7656 L995.8594,505.8594 L993.9688,510.125 L992.4219,510.125 Z "/><text fill="#000000" font-family="sans-serif" font-size="12" font-style="italic" lengthAdjust="spacingAndGlyphs" textLength="73" x="1023.5" y="504.6387">«ILootable»</text><ellipse cx="1012.5" cy="513.9531" fill="#84BE84" rx="3" ry="3" style="stroke: #038048; stroke-width: 1.0;"/><text fill="#000000" font-family="sans-serif" font-size="12" lengthAdjust="spacingAndGlyphs" textLength="94" x="1018.5" y="518.6074">LootableObject</text><line style="stroke: #A80036; stroke-width: 1.5;" x1="979.5" x2="1114.5" y1="526.4375" y2="526.4375"/><line style="stroke: #A80036; stroke-width: 1.5;" x1="979.5" x2="1114.5" y1="534.4375" y2="534.4375"/><!--MD5=[c98ab753300cd46c08425dc55af9df07]
class ILootable--><rect fill="#FEFECE" filter="url(#frau5ditcnpio)" height="79.5469" id="ILootable" style="stroke: #A80036; stroke-width: 1.5;" width="168" x="1151" y="475.5"/><ellipse cx="1196.75" cy="494.4688" fill="#FFFFE0" rx="11" ry="11" style="stroke: #A80036; stroke-width: 1.0;"/><path d="M1197.7031,491.25 L1197.7031,497.7656 L1199.4219,497.7656 C1199.875,497.7656 1200.0156,497.7969 1200.1875,497.9219 C1200.4219,498.0938 1200.5313,498.3438 1200.5313,498.625 C1200.5313,499.1875 1200.1719,499.4688 1199.4219,499.4688 L1194.2813,499.4688 C1193.875,499.4688 1193.6719,499.4219 1193.5156,499.2969 C1193.2969,499.1406 1193.1563,498.875 1193.1563,498.625 C1193.1563,498.3281 1193.3125,498.0469 1193.5625,497.8906 C1193.7188,497.7813 1193.8438,497.7656 1194.2813,497.7656 L1196,497.7656 L1196,491.25 L1194.2813,491.25 C1193.8594,491.25 1193.6719,491.2188 1193.5156,491.1094 C1193.2969,490.9375 1193.1563,490.6875 1193.1563,490.4063 C1193.1563,490.125 1193.3125,489.8281 1193.5625,489.6719 C1193.7188,489.5781 1193.8438,489.5625 1194.2813,489.5625 L1199.4219,489.5625 C1199.875,489.5625 1200.0156,489.5938 1200.1875,489.7031 C1200.4219,489.875 1200.5313,490.1406 1200.5313,490.4063 C1200.5313,490.7031 1200.3906,490.9844 1200.125,491.1406 C1200,491.2188 1199.8125,491.25 1199.4219,491.25 Z "/><text fill="#000000" font-family="sans-serif" font-size="12" font-style="italic" lengthAdjust="spacingAndGlyphs" textLength="71" x="1215.75" y="491.6387">«Interface»</text><ellipse cx="1222.25" cy="500.9531" fill="#84BE84" rx="3" ry="3" style="stroke: #038048; stroke-width: 1.0;"/><text fill="#000000" font-family="sans-serif" font-size="12" lengthAdjust="spacingAndGlyphs" textLength="57" x="1228.25" y="505.6074">ILootable</text><line style="stroke: #A80036; stroke-width: 1.5;" x1="1152" x2="1318" y1="513.4375" y2="513.4375"/><ellipse cx="1162" cy="524.4375" fill="none" rx="3" ry="3" style="stroke: #038048; stroke-width: 1.0;"/><text fill="#000000" font-family="sans-serif" font-size="11" lengthAdjust="spacingAndGlyphs" textLength="142" x="1171" y="527.6479">inventory : List&lt;ResSet&gt;</text><line style="stroke: #A80036; stroke-width: 1.5;" x1="1152" x2="1318" y1="534.2422" y2="534.2422"/><ellipse cx="1162" cy="545.2422" fill="#84BE84" rx="3" ry="3" style="stroke: #038048; stroke-width: 1.0;"/><text fill="#000000" font-family="sans-serif" font-size="11" lengthAdjust="spacingAndGlyphs" textLength="32" x="1171" y="548.4526">Loot()</text><!--MD5=[842d4abffa0be14abe9a7cdc2aba9ffa]
class ResSet--><rect fill="#FEFECE" filter="url(#frau5ditcnpio)" height="73.6094" id="ResSet" style="stroke: #A80036; stroke-width: 1.5;" width="110" x="1354" y="478.5"/><ellipse cx="1379.35" cy="494.5" fill="#ADD8E6" rx="11" ry="11" style="stroke: #A80036; stroke-width: 1.0;"/><path d="M1381.6938,490.1719 L1381.8656,490.25 C1382.0844,489.9375 1382.2875,489.8438 1382.5844,489.8438 C1382.8813,489.8438 1383.1625,489.9844 1383.3188,490.25 C1383.4125,490.4063 1383.4281,490.5313 1383.4281,490.9688 L1383.4281,492.3906 C1383.4281,492.8125 1383.3969,493 1383.2875,493.1563 C1383.1156,493.375 1382.85,493.5156 1382.5844,493.5156 C1382.3656,493.5156 1382.1313,493.4063 1381.9906,493.2656 C1381.85,493.1406 1381.8188,493.0156 1381.7563,492.6094 C1381.6625,492.2031 1381.4906,491.9844 1381.0063,491.7031 C1380.5375,491.4531 1379.9281,491.2969 1379.35,491.2969 C1377.6156,491.2969 1376.3656,492.6094 1376.3656,494.3906 L1376.3656,495.4844 C1376.3656,497.1875 1377.6625,498.2813 1379.7094,498.2813 C1380.475,498.2813 1381.1625,498.1563 1381.5844,497.8906 C1381.7719,497.7969 1381.7719,497.7969 1382.225,497.3125 C1382.4125,497.125 1382.6156,497.0469 1382.8344,497.0469 C1383.3031,497.0469 1383.6938,497.4375 1383.6938,497.8906 C1383.6938,498.2813 1383.3656,498.7344 1382.7875,499.1406 C1382.0375,499.6875 1380.8813,499.9844 1379.6625,499.9844 C1376.7719,499.9844 1374.6625,498.0938 1374.6625,495.5156 L1374.6625,494.3906 C1374.6625,491.6719 1376.6625,489.5938 1379.2875,489.5938 C1380.1625,489.5938 1380.7563,489.7344 1381.6938,490.1719 Z "/><ellipse cx="1400.65" cy="494" fill="#84BE84" rx="3" ry="3" style="stroke: #038048; stroke-width: 1.0;"/><text fill="#000000" font-family="sans-serif" font-size="12" lengthAdjust="spacingAndGlyphs" textLength="44" x="1406.65" y="498.6543">ResSet</text><line style="stroke: #A80036; stroke-width: 1.5;" x1="1355" x2="1463" y1="510.5" y2="510.5"/><ellipse cx="1365" cy="521.5" fill="none" rx="3" ry="3" style="stroke: #038048; stroke-width: 1.0;"/><text fill="#000000" font-family="sans-serif" font-size="11" lengthAdjust="spacingAndGlyphs" textLength="84" x="1374" y="524.7104">res : Resource</text><ellipse cx="1365" cy="534.3047" fill="none" rx="3" ry="3" style="stroke: #038048; stroke-width: 1.0;"/><text fill="#000000" font-family="sans-serif" font-size="11" lengthAdjust="spacingAndGlyphs" textLength="69" x="1374" y="537.5151">amount : int</text><line style="stroke: #A80036; stroke-width: 1.5;" x1="1355" x2="1463" y1="544.1094" y2="544.1094"/><!--MD5=[6b13f1b330d33795af281e5c1dfe1e98]
class Resource--><rect fill="#FEFECE" filter="url(#frau5ditcnpio)" height="60.8047" id="Resource" style="stroke: #A80036; stroke-width: 1.5;" width="149" x="1499.5" y="485"/><ellipse cx="1535.65" cy="501" fill="#ADD8E6" rx="11" ry="11" style="stroke: #A80036; stroke-width: 1.0;"/><path d="M1539.9313,496.9688 L1539.9313,498.4688 C1539.9313,498.9375 1539.9,499.0781 1539.7906,499.25 C1539.6188,499.4688 1539.3688,499.6094 1539.1031,499.6094 C1538.8688,499.6094 1538.6344,499.5 1538.4938,499.375 C1538.3688,499.2344 1538.3688,499.2344 1538.2594,498.6875 C1538.1031,498.0156 1537.2906,497.5469 1536.2281,497.5469 C1535.1656,497.5469 1534.3063,498.1094 1534.3063,498.8438 C1534.3063,499.2031 1534.5719,499.5938 1534.9469,499.7813 C1535.275,499.9531 1535.3688,499.9844 1536.6344,500.2188 C1538.1188,500.4844 1538.7594,500.7344 1539.2906,501.1563 C1539.9781,501.7031 1540.2906,502.3906 1540.2906,503.2813 C1540.2906,505.0469 1538.7281,506.2344 1536.4,506.2344 C1535.4781,506.2344 1534.5875,506.0156 1533.7438,505.5781 C1533.4625,505.9219 1533.3375,505.9844 1533.0719,505.9844 C1532.4781,505.9844 1532.1969,505.625 1532.1969,504.8594 L1532.1969,503.7344 C1532.1969,503.3125 1532.2438,503.125 1532.3531,502.9531 C1532.525,502.7344 1532.775,502.6094 1533.0563,502.6094 C1533.2906,502.6094 1533.5094,502.7031 1533.6656,502.8594 C1533.7906,502.9688 1533.7906,502.9688 1533.9156,503.4375 C1534.0875,504.0469 1535.1656,504.5313 1536.2906,504.5313 C1537.5406,504.5313 1538.525,503.9844 1538.525,503.25 C1538.525,502.8906 1538.2906,502.5469 1537.9156,502.3438 C1537.5563,502.1563 1537.2906,502.0938 1536.1344,501.8906 C1535.025,501.7031 1534.4781,501.5313 1533.9313,501.2188 C1533.0719,500.7344 1532.5406,499.8281 1532.5406,498.8594 C1532.5406,497.1406 1534.1188,495.8438 1536.2281,495.8438 C1537.1031,495.8438 1537.8531,496.0313 1538.4469,496.4063 C1538.6188,495.9844 1538.7594,495.8438 1539.1031,495.8438 C1539.4,495.8438 1539.6813,496 1539.8219,496.2344 C1539.9156,496.3906 1539.9313,496.5313 1539.9313,496.9688 Z "/><ellipse cx="1559.35" cy="500.5" fill="#84BE84" rx="3" ry="3" style="stroke: #038048; stroke-width: 1.0;"/><text fill="#000000" font-family="sans-serif" font-size="12" lengthAdjust="spacingAndGlyphs" textLength="59" x="1565.35" y="505.1543">Resource</text><line style="stroke: #A80036; stroke-width: 1.5;" x1="1500.5" x2="1647.5" y1="517" y2="517"/><ellipse cx="1510.5" cy="528" fill="none" rx="3" ry="3" style="stroke: #038048; stroke-width: 1.0;"/><text fill="#000000" font-family="sans-serif" font-size="11" lengthAdjust="spacingAndGlyphs" textLength="123" x="1519.5" y="531.2104">nomenclature : string</text><line style="stroke: #A80036; stroke-width: 1.5;" x1="1500.5" x2="1647.5" y1="537.8047" y2="537.8047"/><!--MD5=[3915787db80ab162e3259f8f86339844]
class Structure--><rect fill="#FEFECE" filter="url(#frau5ditcnpio)" height="73.6094" id="Structure" style="stroke: #A80036; stroke-width: 1.5;" width="150" x="908" y="923"/><ellipse cx="944.6" cy="939" fill="#90EE90" rx="11" ry="11" style="stroke: #A80036; stroke-width: 1.0;"/><path d="M941.5063,937.3906 L941.5063,942.2969 L942.1156,942.2969 C942.5688,942.2969 942.7094,942.3281 942.8969,942.4531 C943.1156,942.625 943.225,942.875 943.225,943.1563 C943.225,943.4375 943.0844,943.7188 942.8188,943.875 C942.7094,943.9531 942.4438,944 942.1156,944 L939.9125,944 C939.5063,944 939.2875,943.9531 939.1313,943.8281 C938.9125,943.6719 938.7719,943.4219 938.7719,943.1563 C938.7719,942.6094 939.1469,942.2969 939.8188,942.2969 L939.8188,935.7813 C939.2563,935.7344 938.9281,935.4375 938.9281,934.9219 C938.9281,934.6563 939.0844,934.3594 939.3344,934.1875 C939.4281,934.1406 939.7875,934.0781 939.9906,934.0781 C940.0219,934.0781 940.0375,934.0781 940.0531,934.0938 L941.9125,934.0938 L944.2563,939.1406 L946.5531,934.0938 L948.4125,934.0938 C948.8813,934.0938 949.0219,934.125 949.1938,934.2344 C949.3969,934.4063 949.5375,934.6719 949.5375,934.9375 C949.5375,935.4375 949.2094,935.7344 948.6469,935.7813 L948.6469,942.2969 C949.3188,942.2969 949.6938,942.6094 949.6938,943.1563 C949.6938,943.4375 949.5375,943.7188 949.2875,943.875 C949.1625,943.9531 948.9125,944 948.5688,944 L946.3656,944 C945.975,944 945.725,943.9531 945.6,943.8281 C945.3656,943.6719 945.2406,943.4063 945.2406,943.1563 C945.2406,942.8594 945.3969,942.5781 945.6469,942.4219 C945.8031,942.3125 945.9125,942.2969 946.3656,942.2969 L946.9594,942.2969 L946.9594,937.3906 L945.0688,941.6563 L943.5219,941.6563 Z "/><ellipse cx="968.4" cy="938.5" fill="#84BE84" rx="3" ry="3" style="stroke: #038048; stroke-width: 1.0;"/><text fill="#000000" font-family="sans-serif" font-size="12" lengthAdjust="spacingAndGlyphs" textLength="59" x="974.4" y="943.1543">Structure</text><line style="stroke: #A80036; stroke-width: 1.5;" x1="909" x2="1057" y1="955" y2="955"/><ellipse cx="919" cy="966" fill="none" rx="3" ry="3" style="stroke: #038048; stroke-width: 1.0;"/><text fill="#000000" font-family="sans-serif" font-size="11" lengthAdjust="spacingAndGlyphs" textLength="124" x="928" y="969.2104">stats : StructureStats</text><ellipse cx="919" cy="978.8047" fill="none" rx="3" ry="3" style="stroke: #038048; stroke-width: 1.0;"/><text fill="#000000" font-family="sans-serif" font-size="11" lengthAdjust="spacingAndGlyphs" textLength="75" x="928" y="982.0151">currHp : float</text><line style="stroke: #A80036; stroke-width: 1.5;" x1="909" x2="1057" y1="988.6094" y2="988.6094"/><!--MD5=[e6173de28cf336c373bac555a3b1323f]
class StructureStats--><rect fill="#FEFECE" filter="url(#frau5ditcnpio)" height="86.4141" id="StructureStats" style="stroke: #A80036; stroke-width: 1.5;" width="174" x="1093" y="917"/><ellipse cx="1125.55" cy="933" fill="#FF0000" rx="11" ry="11" style="stroke: #A80036; stroke-width: 1.0;"/><path d="M1129.8313,928.9688 L1129.8313,930.4688 C1129.8313,930.9375 1129.8,931.0781 1129.6906,931.25 C1129.5188,931.4688 1129.2688,931.6094 1129.0031,931.6094 C1128.7688,931.6094 1128.5344,931.5 1128.3938,931.375 C1128.2688,931.2344 1128.2688,931.2344 1128.1594,930.6875 C1128.0031,930.0156 1127.1906,929.5469 1126.1281,929.5469 C1125.0656,929.5469 1124.2063,930.1094 1124.2063,930.8438 C1124.2063,931.2031 1124.4719,931.5938 1124.8469,931.7813 C1125.175,931.9531 1125.2688,931.9844 1126.5344,932.2188 C1128.0188,932.4844 1128.6594,932.7344 1129.1906,933.1563 C1129.8781,933.7031 1130.1906,934.3906 1130.1906,935.2813 C1130.1906,937.0469 1128.6281,938.2344 1126.3,938.2344 C1125.3781,938.2344 1124.4875,938.0156 1123.6438,937.5781 C1123.3625,937.9219 1123.2375,937.9844 1122.9719,937.9844 C1122.3781,937.9844 1122.0969,937.625 1122.0969,936.8594 L1122.0969,935.7344 C1122.0969,935.3125 1122.1438,935.125 1122.2531,934.9531 C1122.425,934.7344 1122.675,934.6094 1122.9563,934.6094 C1123.1906,934.6094 1123.4094,934.7031 1123.5656,934.8594 C1123.6906,934.9688 1123.6906,934.9688 1123.8156,935.4375 C1123.9875,936.0469 1125.0656,936.5313 1126.1906,936.5313 C1127.4406,936.5313 1128.425,935.9844 1128.425,935.25 C1128.425,934.8906 1128.1906,934.5469 1127.8156,934.3438 C1127.4563,934.1563 1127.1906,934.0938 1126.0344,933.8906 C1124.925,933.7031 1124.3781,933.5313 1123.8313,933.2188 C1122.9719,932.7344 1122.4406,931.8281 1122.4406,930.8594 C1122.4406,929.1406 1124.0188,927.8438 1126.1281,927.8438 C1127.0031,927.8438 1127.7531,928.0313 1128.3469,928.4063 C1128.5188,927.9844 1128.6594,927.8438 1129.0031,927.8438 C1129.3,927.8438 1129.5813,928 1129.7219,928.2344 C1129.8156,928.3906 1129.8313,928.5313 1129.8313,928.9688 Z "/><ellipse cx="1148.45" cy="932.5" fill="#84BE84" rx="3" ry="3" style="stroke: #038048; stroke-width: 1.0;"/><text fill="#000000" font-family="sans-serif" font-size="12" lengthAdjust="spacingAndGlyphs" textLength="92" x="1154.45" y="937.1543">StructureStats</text><line style="stroke: #A80036; stroke-width: 1.5;" x1="1094" x2="1266" y1="949" y2="949"/><ellipse cx="1104" cy="960" fill="none" rx="3" ry="3" style="stroke: #038048; stroke-width: 1.0;"/><text fill="#000000" font-family="sans-serif" font-size="11" lengthAdjust="spacingAndGlyphs" textLength="76" x="1113" y="963.2104">maxHp : float</text><ellipse cx="1104" cy="972.8047" fill="none" rx="3" ry="3" style="stroke: #038048; stroke-width: 1.0;"/><text fill="#000000" font-family="sans-serif" font-size="11" lengthAdjust="spacingAndGlyphs" textLength="148" x="1113" y="976.0151">doesAggroZombies : bool</text><ellipse cx="1104" cy="985.6094" fill="none" rx="3" ry="3" style="stroke: #038048; stroke-width: 1.0;"/><text fill="#000000" font-family="sans-serif" font-size="11" lengthAdjust="spacingAndGlyphs" textLength="114" x="1113" y="988.8198">cost : List&lt;ResSet&gt;</text><line style="stroke: #A80036; stroke-width: 1.5;" x1="1094" x2="1266" y1="995.4141" y2="995.4141"/><!--MD5=[d1c5f4461b65387d20e186c50db953aa]
class Consumable--><rect fill="#FEFECE" filter="url(#frau5ditcnpio)" height="73.6094" id="Consumable" style="stroke: #A80036; stroke-width: 1.5;" width="140" x="1374" y="923"/><ellipse cx="1398" cy="939" fill="#FF0000" rx="11" ry="11" style="stroke: #A80036; stroke-width: 1.0;"/><path d="M1402.2813,934.9688 L1402.2813,936.4688 C1402.2813,936.9375 1402.25,937.0781 1402.1406,937.25 C1401.9688,937.4688 1401.7188,937.6094 1401.4531,937.6094 C1401.2188,937.6094 1400.9844,937.5 1400.8438,937.375 C1400.7188,937.2344 1400.7188,937.2344 1400.6094,936.6875 C1400.4531,936.0156 1399.6406,935.5469 1398.5781,935.5469 C1397.5156,935.5469 1396.6563,936.1094 1396.6563,936.8438 C1396.6563,937.2031 1396.9219,937.5938 1397.2969,937.7813 C1397.625,937.9531 1397.7188,937.9844 1398.9844,938.2188 C1400.4688,938.4844 1401.1094,938.7344 1401.6406,939.1563 C1402.3281,939.7031 1402.6406,940.3906 1402.6406,941.2813 C1402.6406,943.0469 1401.0781,944.2344 1398.75,944.2344 C1397.8281,944.2344 1396.9375,944.0156 1396.0938,943.5781 C1395.8125,943.9219 1395.6875,943.9844 1395.4219,943.9844 C1394.8281,943.9844 1394.5469,943.625 1394.5469,942.8594 L1394.5469,941.7344 C1394.5469,941.3125 1394.5938,941.125 1394.7031,940.9531 C1394.875,940.7344 1395.125,940.6094 1395.4063,940.6094 C1395.6406,940.6094 1395.8594,940.7031 1396.0156,940.8594 C1396.1406,940.9688 1396.1406,940.9688 1396.2656,941.4375 C1396.4375,942.0469 1397.5156,942.5313 1398.6406,942.5313 C1399.8906,942.5313 1400.875,941.9844 1400.875,941.25 C1400.875,940.8906 1400.6406,940.5469 1400.2656,940.3438 C1399.9063,940.1563 1399.6406,940.0938 1398.4844,939.8906 C1397.375,939.7031 1396.8281,939.5313 1396.2813,939.2188 C1395.4219,938.7344 1394.8906,937.8281 1394.8906,936.8594 C1394.8906,935.1406 1396.4688,933.8438 1398.5781,933.8438 C1399.4531,933.8438 1400.2031,934.0313 1400.7969,934.4063 C1400.9688,933.9844 1401.1094,933.8438 1401.4531,933.8438 C1401.75,933.8438 1402.0313,934 1402.1719,934.2344 C1402.2656,934.3906 1402.2813,934.5313 1402.2813,934.9688 Z "/><ellipse cx="1419" cy="938.5" fill="#84BE84" rx="3" ry="3" style="stroke: #038048; stroke-width: 1.0;"/><text fill="#000000" font-family="sans-serif" font-size="12" lengthAdjust="spacingAndGlyphs" textLength="77" x="1425" y="943.1543">Consumable</text><line style="stroke: #A80036; stroke-width: 1.5;" x1="1375" x2="1513" y1="955" y2="955"/><ellipse cx="1385" cy="966" fill="none" rx="3" ry="3" style="stroke: #038048; stroke-width: 1.0;"/><text fill="#000000" font-family="sans-serif" font-size="11" lengthAdjust="spacingAndGlyphs" textLength="114" x="1394" y="969.2104">cost : List&lt;ResSet&gt;</text><line style="stroke: #A80036; stroke-width: 1.5;" x1="1375" x2="1513" y1="975.8047" y2="975.8047"/><ellipse cx="1385" cy="986.8047" fill="#84BE84" rx="3" ry="3" style="stroke: #038048; stroke-width: 1.0;"/><text fill="#000000" font-family="sans-serif" font-size="11" lengthAdjust="spacingAndGlyphs" textLength="52" x="1394" y="990.0151">Activate()</text><!--MD5=[6318f9a4526cb9228c8b4691763b6edb]
link CharacterCombat to CharacterController--><path d="M333,174.113 C333,190.765 333,209.626 333,227.181 " fill="none" id="CharacterCombat-&gt;CharacterController" style="stroke: #A80036; stroke-width: 1.0;"/><polygon fill="#A80036" points="333,240.292,337,234.292,333,228.292,329,234.292,333,240.292" style="stroke: #A80036; stroke-width: 1.0;"/><!--MD5=[2b97b8b6d64d70f8a7bb8c41f018687f]
reverse link CharacterCombat to CharacterWeapon--><path d="M471.824,124.5 C481.755,124.5 491.685,124.5 501.616,124.5 " fill="none" id="CharacterCombat&lt;-CharacterWeapon" style="stroke: #A80036; stroke-width: 1.0;"/><polygon fill="#A80036" points="466.631,124.5,475.631,128.5,471.631,124.5,475.631,120.5,466.631,124.5" style="stroke: #A80036; stroke-width: 1.0;"/><!--MD5=[c93edeef550f1a0a25361ed1a8024083]
link CharacterInput to CharacterController--><path d="M191.906,290 C199.197,290 206.489,290 213.78,290 " fill="none" id="CharacterInput-&gt;CharacterController" style="stroke: #A80036; stroke-width: 1.0;"/><polygon fill="#A80036" points="226.904,290,220.904,286,214.904,290,220.904,294,226.904,290" style="stroke: #A80036; stroke-width: 1.0;"/><!--MD5=[0a63e2a7a9702c0c64fcbee6a34d35f8]
reverse link CharacterController to CharacterMovement--><path d="M452.496,290 C459.581,290 466.666,290 473.751,290 " fill="none" id="CharacterController&lt;-CharacterMovement" style="stroke: #A80036; stroke-width: 1.0;"/><polygon fill="#A80036" points="439.312,290,445.312,294,451.312,290,445.312,286,439.312,290" style="stroke: #A80036; stroke-width: 1.0;"/><!--MD5=[6ace73ba20768c562fded77552b50848]
link VehicleTurret to Camper--><path d="M588.177,747.5 C578.396,747.5 568.615,747.5 558.834,747.5 " fill="none" id="VehicleTurret-&gt;Camper" style="stroke: #A80036; stroke-width: 1.0;"/><polygon fill="#A80036" points="553.719,747.5,562.719,751.5,558.719,747.5,562.719,743.5,553.719,747.5" style="stroke: #A80036; stroke-width: 1.0;"/><!--MD5=[c89a9557ee5d9e94c5bcf8673d95abba]
reverse link LootableObject to ILootable--><path d="M1120.85,515.5 C1130.78,515.5 1140.7,515.5 1150.63,515.5 " fill="none" id="LootableObject&lt;-ILootable" style="stroke: #A80036; stroke-width: 1.0;"/><polygon fill="#A80036" points="1115.66,515.5,1124.66,519.5,1120.66,515.5,1124.66,511.5,1115.66,515.5" style="stroke: #A80036; stroke-width: 1.0;"/><!--MD5=[0eb03b739dd6c69d6810a874928877d2]
reverse link ILootable to ResSet--><path d="M1324.43,515.5 C1334.28,515.5 1344.13,515.5 1353.98,515.5 " fill="none" id="ILootable&lt;-ResSet" style="stroke: #A80036; stroke-width: 1.0;"/><polygon fill="#A80036" points="1319.28,515.5,1328.28,519.5,1324.28,515.5,1328.28,511.5,1319.28,515.5" style="stroke: #A80036; stroke-width: 1.0;"/><!--MD5=[763b46cb211f150076395258b679c939]
reverse link ResSet to Resource--><path d="M1469.33,515.5 C1479.32,515.5 1489.32,515.5 1499.31,515.5 " fill="none" id="ResSet&lt;-Resource" style="stroke: #A80036; stroke-width: 1.0;"/><polygon fill="#A80036" points="1464.11,515.5,1473.11,519.5,1469.11,515.5,1473.11,511.5,1464.11,515.5" style="stroke: #A80036; stroke-width: 1.0;"/><!--MD5=[42dd0a8bd0290b8cc6ed32a499663f64]
link Structure to StructureStats--><path d="M1058.03,960 C1067.9,960 1077.77,960 1087.65,960 " fill="none" id="Structure-&gt;StructureStats" style="stroke: #A80036; stroke-width: 1.0;"/><polygon fill="#A80036" points="1092.81,960,1083.81,956,1087.81,960,1083.81,964,1092.81,960" style="stroke: #A80036; stroke-width: 1.0;"/><!--MD5=[43dfadfac86a65d4bfdf070b1368a4cc]
link LootableObject to GameController--><path d="M1048.84,542.884 C1051.66,583.559 1057.11,661.761 1060.36,708.521 " fill="none" id="LootableObject-&gt;GameController" style="stroke: #A80036; stroke-width: 1.0;"/><polygon fill="#A80036" points="1060.72,713.783,1064.0852,704.5269,1060.3727,708.7951,1056.1045,705.0826,1060.72,713.783" style="stroke: #A80036; stroke-width: 1.0;"/><!--MD5=[f83915389c032897941911718b7a9803]
link TurretStats to VehicleTurret--><path d="M632.236,558.686 C638.395,600.348 647.756,663.671 653.876,705.07 " fill="none" id="TurretStats-&gt;VehicleTurret" style="stroke: #A80036; stroke-width: 1.0;"/><polygon fill="#A80036" points="654.642,710.258,657.2823,700.7696,653.9105,705.3118,649.3683,701.94,654.642,710.258" style="stroke: #A80036; stroke-width: 1.0;"/><!--MD5=[9f76109219952b213eb30ae7c0906765]
link VehicleStats to Camper--><path d="M437.079,578.136 C445.25,609.46 455.192,647.571 463.55,679.607 " fill="none" id="VehicleStats-&gt;Camper" style="stroke: #A80036; stroke-width: 1.0;"/><polygon fill="#A80036" points="464.877,684.694,466.4745,674.9756,463.6143,679.8561,458.7338,676.9959,464.877,684.694" style="stroke: #A80036; stroke-width: 1.0;"/><!--MD5=[8d73959d70ef84c805e1aa7e790023ce]
reverse link CharacterController to CharacterStats--><path d="M309.469,344.665 C293.303,381.534 272.014,430.086 256.34,465.832 " fill="none" id="CharacterController&lt;-CharacterStats" style="stroke: #A80036; stroke-width: 1.0;"/><polygon fill="#A80036" points="311.615,339.772,304.3364,346.4069,309.6063,344.3508,311.6624,349.6207,311.615,339.772" style="stroke: #A80036; stroke-width: 1.0;"/><!--MD5=[b4534b50a6586b04b4ad4f49be9c3779]
link Character to GlobalMap--><!--MD5=[f516a5499c696bdafe813935e8e7b75f]
link Character to Stats--><!--MD5=[ba954e873fb471dbb1c7f2106ed798d2]
link Character to Vehicle--><!--MD5=[b3c091cc8eb34373a670a6c79f54d4c1]
link Character to BuildingSystem--><!--MD5=[80a7c59c2596f298e2f554d0dc811a12]
link Stats to Loot--><!--MD5=[13df5db30a3e6f433afbb8e3938a69f1]
link Vehicle to GameManager--><!--MD5=[0079d35621c3f0c4dca18f7ed446551b]
link BuildingSystem to Consumables--><!--MD5=[d7ec2f2dcd5392b56bc5f9f92eb6076f]
@startuml
package Character
{
    +class CharacterController<<M, lightgreen>>
    {
        +stats : CharacterStats
        +movement : CharacterMovement
        +input : CharacterInput
        +combat : CharacterCombat
    }
    
    +class CharacterMovement<<M, lightgreen>>
    {
        +currSpeed : float
        -controller : CharacterController
        
        +Accelerate(dir, amount)
        +Decelerate(dir, amount)
        -Move()
        
    }
    
    +class CharacterInput<<M, lightgreen>>
    {
        +isPlayer : bool
        -CheckPlayerInput()
        -CheckAIInput()
    }
    
    +class CharacterCombat<<M, lightgreen>>
    {
        +lootablePrefab : GameObject
        +currWeapon : CharacterWeapon
        +carriedWeapons : List<CharacterWeapon>
        +lootTable : 
    }
    
    +class CharacterWeapon<<S, red>>
    {
        +type : WeaponType
        +baseDamage : float
        +range : float
        
        +UseWeapon()
    }
    
    CharacterCombat - -* CharacterController
    CharacterCombat <- CharacterWeapon
    CharacterInput -* CharacterController
    CharacterController *- CharacterMovement
}

package Stats
{
    +class CharacterStats<<S, red>>
    {
        +maxSpeed : float
        +acceleration : float
        +deceleration : float
        +maxStamina : float
    }
    
    +class VehicleStats<<S,red>>
    {
        +maxSpeed : float
        +acceleration : float
        +deceleration : float
        +vehicleDamage : float
        +damageReduction : float
        +maxFuel : float
    }
    
    +class TurretStats<<S,red>>
    {
        +projectile : GameObject
        +shootSpeed : GameObject
        +fireType : FireType
    }
}

package Vehicle
{
    +class Camper<<M,lightgreen>>
    {
        +stats : VehicleStats
        +turret : VehicleTurret
        +currFuel : float
        
        +Accelerate()
        +Decelerate()
        -Move()
    }
    
    +class VehicleTurret<<M,lightgreen>>
    {
        +rotationSpeed : float
        +Rotate()
        
    }

    VehicleTurret -> Camper
}

package GlobalMap
{
    +class MapManager<<M,lightgreen,SingletonDDOL>>
    {
        +ChangeScenario(sceneName)
    }
    
    +class Scenario<<M,lightgreen>> 
    { 
    
    }
}

package GameManager
{
    +class GameController<<M,lightgreen,SingletonDDOL>>
    {
        +playerInventory : List<ResSet>
    }
}

package Loot
{
    +class LootableObject<<M, lightgreen,ILootable>>
    {
        
    }
    
    +class ILootable<<I,lightyellow,Interface>>
    {
        +inventory : List<ResSet>
        +Loot()
    }
    
    +class ResSet<<C,lightblue>>
    {
        +res : Resource
        +amount : int
    }
    
    +class Resource<<S,lightblue>>
    {
        +nomenclature : string
    }
    
    LootableObject <- ILootable
    ILootable <- ResSet
    ResSet <- Resource
}

package BuildingSystem
{
    +class Structure<<M,lightgreen>>
    {
        +stats : StructureStats
        +currHp : float
    }

    +class StructureStats<<S,red>>
    {
        +maxHp : float
        +doesAggroZombies : bool
        +cost : List<ResSet>
    }
    
    Structure -> StructureStats
}

package Consumables
{
    +class Consumable<<S,red>>
    {
        +cost : List<ResSet>
        
        +Activate()
    }
}

LootableObject - -> GameController

TurretStats -> VehicleTurret
VehicleStats -> Camper
CharacterController <- CharacterStats

Character -[hidden] GlobalMap
Character -[hidden]- - Stats
Character -[hidden]- - - Vehicle
Character -[hidden]- - - - BuildingSystem
Stats -[hidden] Loot
Vehicle -[hidden] GameManager 
BuildingSystem -[hidden] Consumables
@enduml

PlantUML version 1.2019.13(Tue Dec 10 17:18:29 UTC 2019)
(GPL source distribution)
Java Runtime: Java(TM) SE Runtime Environment
JVM: Java HotSpot(TM) 64-Bit Server VM
Java Version: 1.7.0_25-b15
Operating System: Linux
Default Encoding: UTF-8
Language: en
Country: US
--></g></svg>